<svg width="31" height="53" viewBox="0 0 31 53" fill="none" xmlns="http://www.w3.org/2000/svg">
<rect width="31" height="53" fill="#E5E5E5"/>
<g clip-path="url(#clip0_1476_7643)">
<rect width="1440" height="8234" transform="translate(-153 -17)" fill="white"/>
<path d="M-153 -21H1287V80H-153V-21Z" fill="white"/>
<path d="M18.1214 32.8024C18.1537 33.0162 18.1329 33.2553 18.2265 33.4379C18.542 34.0561 18.8759 34.6662 19.2422 35.2555C19.6628 35.9326 20.095 36.6109 20.0534 37.4382C19.984 38.8259 20.0337 40.2645 19.2041 41.4743C18.7084 42.1953 18.148 42.9036 17.4905 43.4732C16.29 44.5143 15.0143 45.4699 13.7363 46.4174C12.7773 47.128 11.7801 47.7924 10.7737 48.436C9.29237 49.3835 7.74056 50.4662 6.02467 51.0474C4.22675 51.6552 2.20119 51.8135 0.336245 52.1463C0.238029 52.1636 0.138658 52.1763 0 52.1035C0.366287 51.9048 0.719864 51.6772 1.10117 51.5142C3.20761 50.6118 5.23664 49.5557 7.20326 48.384C10.0342 46.6982 12.7657 44.861 15.4176 42.9048C16.6482 41.9965 17.8799 41.0918 18.8343 39.8797C19.7841 38.6745 19.6663 38.8259 19.0076 37.6878C18.7246 37.199 18.3687 36.753 18.0706 36.2735C17.5772 35.4796 17.5136 34.6188 17.7204 33.7245C17.7932 33.4136 17.8649 33.1028 17.9377 32.792C17.9989 32.7955 18.0602 32.7989 18.1202 32.8035L18.1214 32.8024Z" fill="#1E5398"/>
<path d="M20.901 34.8486C20.8917 34.7712 20.8825 34.7239 20.8802 34.6753C20.7889 32.8266 20.7589 30.9709 20.5878 29.129C20.277 25.7689 20.2077 22.3914 19.9442 19.0278C19.8171 17.4136 19.8033 15.7913 19.7363 14.1713C19.6415 11.8812 19.5433 9.59216 19.4485 7.302C19.3931 5.97205 19.3087 4.64209 19.296 3.31098C19.2868 2.35308 19.8275 1.5974 20.3117 0.835938C20.3521 0.844026 20.3937 0.852114 20.4342 0.860203C20.4527 1.18951 20.4723 1.51883 20.4908 1.84814C20.6006 3.87716 20.7034 5.90618 20.8212 7.93521C21.1482 13.6075 21.4637 19.2797 21.7699 24.9531C21.8785 26.9544 21.9964 28.9557 22.1189 30.9558C22.2044 32.3551 21.7387 33.5926 21.0315 34.7631C21.0142 34.7909 20.9715 34.8036 20.9021 34.8463L20.901 34.8486Z" fill="#1E5398"/>
<path d="M28.8538 20.9847C27.7849 19.9228 26.4388 19.8454 25.4821 20.8056C24.4687 21.8224 24.107 23.1246 24.0909 24.5447C24.0874 24.8521 24.255 25.2033 24.4364 25.4575C24.9124 26.1242 25.6473 26.2352 26.3683 26.3265C27.1252 26.4224 27.897 26.4871 28.558 26.9215C28.9023 27.148 29.1796 27.4923 29.5355 27.8286C29.4696 27.7662 29.6175 27.0313 29.6245 26.8926C29.6453 26.4801 29.6025 26.1231 29.487 25.7314C29.3171 25.1594 29.0537 24.6002 28.4956 24.3725C27.7306 24.0606 26.8929 24.0825 26.0922 23.9566C25.8761 23.9231 25.6623 23.8699 25.452 23.8087C25.1065 23.707 25.0811 23.6053 25.3087 23.2956C26.0067 22.3424 26.9761 22.2314 27.9074 23.0761C29.1484 24.2004 30.0092 26.13 30.1571 27.8644C30.1814 28.1498 30.3235 29.6046 30.0913 29.7756C30.2149 29.6843 30.2634 29.6681 30.2715 29.6404C30.7187 28.0816 31.204 26.4767 30.9105 24.8093C30.6482 23.3187 29.8844 22.0084 28.8549 20.9858L28.8538 20.9847Z" fill="#1E5398"/>
<path d="M28.1397 36.8415C28.2206 36.6508 28.2922 36.4555 28.3858 36.2707C28.9035 35.2492 29.1877 34.1631 29.2859 33.0284C29.5205 30.3234 26.8721 28.8432 24.5392 28.6976C21.4818 28.507 18.5111 30.8087 16.4093 32.7927C16.244 32.9486 16.1042 33.1312 15.9528 33.3034C15.5091 33.8095 15.8535 34.3491 16.2105 34.7812C16.638 35.3001 17.0505 35.8327 17.4434 36.3793C17.946 37.0806 18.429 37.7416 18.3158 38.6509C18.2592 39.1062 18.1621 39.5568 18.0824 40.0098L17.9992 40.0133C17.968 39.9717 17.9091 39.9324 17.9079 39.8896C17.8825 39.2206 17.4746 38.6544 17.0748 38.1483C16.4994 37.4192 15.7761 36.6647 15.4352 35.79C15.0828 34.8864 15.0781 33.8638 15.3497 32.9394C15.6536 31.9041 16.3804 31.0652 17.1569 30.3453C18.0593 29.5076 18.9941 28.6653 20.0895 28.0864C21.8573 27.1539 23.6772 26.4421 25.7086 26.9679C27.3135 27.3827 28.7902 28.4862 29.3726 30.075C29.4847 30.3823 29.5621 30.7012 29.6025 31.0259C29.8059 32.6344 29.3379 34.2867 28.8191 35.7911C28.6874 36.1736 28.4436 36.5179 28.2518 36.8796C28.2148 36.8669 28.1767 36.853 28.1397 36.8403V36.8415Z" fill="#1E5398"/>
<path d="M28.6029 40.2359C27.9004 39.5103 27.2949 38.8956 26.7079 38.2635C26.6502 38.2011 26.6594 38.0001 26.7172 37.9215C27.0881 37.4166 27.4821 36.9301 27.8646 36.4344C28.0102 36.2449 28.1546 36.2206 28.3268 36.402C28.8433 36.9463 29.3725 37.4801 29.8751 38.0382C29.9595 38.1318 30.0114 38.3756 29.9514 38.46C29.5273 39.055 29.0709 39.627 28.6018 40.2359H28.6029Z" fill="#1E5398"/>
<path d="M29.0766 14.8584V14.8861C28.024 15.9642 28.0251 17.6882 29.0778 18.7674H29.0512H29.0489C27.9696 17.7147 26.2491 17.7147 25.1722 18.7662C25.1722 18.7662 25.1711 18.7651 25.1699 18.7662V18.7431C26.2237 17.6627 26.2237 15.9399 25.1699 14.8596H25.1988C26.2769 15.911 27.9974 15.911 29.0743 14.8596C29.0743 14.8596 29.0754 14.8607 29.0766 14.8596V14.8584Z" fill="#1E5398"/>
</g>
<defs>
<clipPath id="clip0_1476_7643">
<rect width="1440" height="8234" fill="white" transform="translate(-153 -17)"/>
</clipPath>
</defs>
</svg>
