<svg xmlns="http://www.w3.org/2000/svg" width="249" height="72" viewBox="0 0 249 72" fill="none"><path d="M242.605 52.8058H238.691L237.442 49.7235H234.972C234.084 49.7235 233.232 49.7556 232.419 49.8211C231.604 49.8865 230.86 50.0255 230.184 50.238C229.508 50.4516 228.922 50.7616 228.421 51.1682C227.922 51.5759 227.533 52.1225 227.255 52.807H223.341L231.225 33.3653H234.722L242.606 52.807L242.605 52.8058ZM236.082 46.3896L232.973 38.6687L229.226 47.9457C230.058 47.3531 230.946 46.9454 231.891 46.7238C232.834 46.5021 233.861 46.3907 234.972 46.3907H236.082V46.3896Z" fill="#8CA3BE"></path><path d="M244.574 52.8058V33.3641H248.21V52.8058H244.574Z" fill="#8CA3BE"></path><path d="M98.9416 42.7525H107.88V47.391C107.695 48.1501 107.367 48.8817 106.894 49.5856C106.422 50.2896 105.83 50.9098 105.117 51.4461C104.405 51.9836 103.577 52.4142 102.634 52.7381C101.69 53.0619 100.663 53.2239 99.5522 53.2239C98.3677 53.2239 97.2062 53.016 96.0689 52.5991C94.9303 52.1822 93.9135 51.5575 93.016 50.7249C92.1185 49.8923 91.392 48.8415 90.8365 47.5724C90.281 46.3046 90.0032 44.8093 90.0032 43.0867C90.0032 41.7166 90.2064 40.42 90.6138 39.1981C91.0201 37.9762 91.6169 36.9024 92.4042 35.9768C93.1904 35.0511 94.1717 34.315 95.347 33.7684C96.5222 33.2229 97.8776 32.9484 99.4133 32.9484C100.523 32.9484 101.593 33.1011 102.619 33.4066C103.646 33.7121 104.548 34.1611 105.325 34.7537C106.102 35.3463 106.722 36.087 107.184 36.9759C107.647 37.8648 107.879 38.8834 107.879 40.0307H103.632C103.632 39.4749 103.516 38.9845 103.286 38.5584C103.054 38.1324 102.739 37.7718 102.342 37.4755C101.944 37.1792 101.477 36.9575 100.941 36.8082C100.404 36.6601 99.8207 36.5866 99.1918 36.5866C98.2851 36.5866 97.4886 36.7439 96.8045 37.0586C96.1194 37.3733 95.5455 37.8131 95.0841 38.3781C94.6216 38.9432 94.2739 39.6242 94.0432 40.42C93.8113 41.2171 93.6966 42.1048 93.6966 43.0867C93.6966 44.3281 93.8538 45.3778 94.1683 46.2391C94.4827 47.1004 94.9085 47.7941 95.4457 48.3224C95.9816 48.8495 96.598 49.2296 97.2912 49.4605C97.9855 49.6924 98.7017 49.8073 99.442 49.8073C100.608 49.8073 101.635 49.5765 102.524 49.1136C103.412 48.6508 103.977 47.9744 104.216 47.0855V46.0852H98.9427V42.7525H98.9416Z" fill="#FFCE1F"></path><path d="M120.842 37.8085V41.1137H116.596C115.652 41.1137 115.004 41.3124 114.653 41.7109C114.301 42.1094 114.126 42.7341 114.126 43.5851V52.8058H110.629V42.4734C110.629 41.7694 110.74 41.1355 110.961 40.5705C111.184 40.0055 111.503 39.5151 111.919 39.0982C112.335 38.6813 112.83 38.3621 113.404 38.1404C113.978 37.9176 114.607 37.8074 115.292 37.8074H120.843L120.842 37.8085Z" fill="#FFCE1F"></path><path d="M135.692 47.5851C135.692 49.4559 135.137 50.8627 134.027 51.8067C132.917 52.7507 131.334 53.2227 129.28 53.2227C128.151 53.2227 127.143 53.024 126.255 52.6255C125.366 52.2282 124.608 51.6769 123.979 50.9729C123.35 50.269 122.869 49.4318 122.535 48.459C122.202 47.4863 122.036 46.4367 122.036 45.3066C122.036 43.9549 122.243 42.7927 122.66 41.8211C123.077 40.8496 123.622 40.0434 124.298 39.4048C124.973 38.7663 125.731 38.2794 126.574 37.9463C127.415 37.6133 128.262 37.4181 129.114 37.3629C130.113 37.2894 131.005 37.3537 131.792 37.557C132.579 37.7614 133.24 38.0669 133.777 38.4735C134.313 38.8812 134.72 39.3761 134.998 39.9595C135.276 40.5429 135.415 41.186 135.415 41.89C135.415 42.2977 135.382 42.6859 135.317 43.0568C135.252 43.4278 135.123 43.7746 134.928 44.0985C134.734 44.4223 134.461 44.7278 134.108 45.0149C133.757 45.302 133.304 45.5662 132.748 45.8062L126.475 48.4728C127.122 49.4731 128.011 49.9727 129.14 49.9727C129.973 49.9727 130.666 49.7878 131.222 49.4168C131.777 49.047 132.055 48.4361 132.055 47.5839H135.691L135.692 47.5851ZM125.672 45.3078V45.627C125.672 45.7292 125.681 45.8349 125.699 45.9463L130.862 43.7241C131.158 43.5943 131.407 43.4462 131.611 43.2796C131.814 43.1131 131.916 42.8444 131.916 42.4746C131.916 41.882 131.666 41.4054 131.167 41.0436C130.668 40.683 130.085 40.5027 129.418 40.5027C128.974 40.5027 128.529 40.5912 128.085 40.7669C127.641 40.9426 127.238 41.2205 126.878 41.6006C126.518 41.9808 126.226 42.4757 126.003 43.0867C125.781 43.6977 125.67 44.4384 125.67 45.3089L125.672 45.3078Z" fill="#FFCE1F"></path><path d="M145.379 49.6396V52.8058H142.326C141.863 52.8058 141.396 52.7461 140.925 52.6255C140.453 52.5049 140.027 52.3017 139.648 52.0146C139.269 51.7275 138.963 51.3531 138.733 50.8891C138.501 50.4263 138.386 49.8521 138.386 49.1676V34.9466H141.883V37.8074H144.936V40.8346H141.883V48.0284C141.883 48.5658 142.031 48.9689 142.327 49.2365C142.623 49.5053 143.011 49.6396 143.493 49.6396H145.381H145.379Z" fill="#FFCE1F"></path><path d="M154.095 49.7786C154.983 49.7786 155.691 49.5937 156.218 49.2228C156.745 48.853 157.009 48.242 157.009 47.3899H160.645C160.645 48.3155 160.487 49.1401 160.173 49.8624C159.858 50.5848 159.414 51.1958 158.84 51.6953C158.266 52.1949 157.592 52.575 156.813 52.8346C156.036 53.0941 155.176 53.2227 154.232 53.2227C153.085 53.2227 152.063 53.024 151.166 52.6255C150.268 52.2282 149.509 51.6724 148.89 50.9592C148.27 50.246 147.797 49.4042 147.475 48.4315C147.151 47.4588 146.989 46.4091 146.989 45.2791C146.989 44.149 147.151 43.0764 147.475 42.1128C147.798 41.1505 148.27 40.3167 148.89 39.6127C149.509 38.9087 150.268 38.3586 151.166 37.9601C152.063 37.5628 153.086 37.3629 154.232 37.3629C155.176 37.3629 156.036 37.4927 156.813 37.7511C157.59 38.0107 158.266 38.3896 158.84 38.8904C159.414 39.3899 159.857 40.0009 160.173 40.7232C160.487 41.4456 160.645 42.269 160.645 43.1958H157.009C157.009 42.3448 156.745 41.7339 156.218 41.3629C155.69 40.9931 154.983 40.8071 154.095 40.8071C153.003 40.8071 152.151 41.178 151.541 41.9176C150.93 42.6583 150.625 43.7781 150.625 45.2779C150.625 46.7778 150.93 47.9032 151.541 48.6531C152.151 49.4031 153.002 49.7774 154.095 49.7774V49.7786Z" fill="#FFCE1F"></path><path d="M172.164 37.3641C172.923 37.3641 173.649 37.4939 174.344 37.7523C175.038 38.0118 175.652 38.4011 176.189 38.9191C176.725 39.4381 177.151 40.0859 177.465 40.8633C177.78 41.6408 177.937 42.5481 177.937 43.5851V52.8058H174.468V44.1961C174.468 43.5851 174.37 43.0534 174.176 42.5986C173.982 42.145 173.723 41.7614 173.399 41.4456C173.075 41.1309 172.7 40.8943 172.275 40.737C171.85 40.5797 171.405 40.5016 170.943 40.5016C170.444 40.5016 169.948 40.6038 169.458 40.8071C168.967 41.0115 168.537 41.3066 168.167 41.6959C167.796 42.0853 167.495 42.5665 167.265 43.1407C167.033 43.7149 166.918 44.3718 166.918 45.1125V52.8058H163.421V31.7529H166.918V40.8909C167.492 39.7804 168.241 38.9145 169.166 38.2943C170.091 37.6742 171.091 37.3641 172.164 37.3641Z" fill="#FFCE1F"></path><path d="M194.12 47.5851C194.12 49.4559 193.564 50.8627 192.454 51.8067C191.343 52.7507 189.762 53.2227 187.707 53.2227C186.578 53.2227 185.57 53.024 184.682 52.6255C183.794 52.2282 183.035 51.6769 182.406 50.9729C181.777 50.269 181.296 49.4318 180.962 48.459C180.629 47.4863 180.463 46.4367 180.463 45.3066C180.463 43.9549 180.671 42.7927 181.087 41.8211C181.504 40.8496 182.049 40.0434 182.725 39.4048C183.4 38.7663 184.159 38.2794 185.001 37.9463C185.842 37.6133 186.689 37.4181 187.541 37.3629C188.541 37.2894 189.432 37.3537 190.22 37.557C191.006 37.7614 191.667 38.0669 192.204 38.4735C192.74 38.8812 193.148 39.3761 193.425 39.9595C193.703 40.5429 193.842 41.186 193.842 41.89C193.842 42.2977 193.81 42.6859 193.744 43.0568C193.679 43.4278 193.55 43.7746 193.355 44.0985C193.161 44.4223 192.888 44.7278 192.537 45.0149C192.185 45.302 191.732 45.5662 191.177 45.8062L184.904 48.4728C185.551 49.4731 186.439 49.9727 187.569 49.9727C188.402 49.9727 189.095 49.7878 189.65 49.4168C190.206 49.047 190.483 48.4361 190.483 47.5839H194.118L194.12 47.5851ZM184.099 45.3078V45.627C184.099 45.7292 184.108 45.8349 184.127 45.9463L189.289 43.7241C189.585 43.5943 189.834 43.4462 190.038 43.2796C190.242 43.1131 190.344 42.8444 190.344 42.4746C190.344 41.882 190.093 41.4054 189.594 41.0436C189.095 40.683 188.512 40.5027 187.845 40.5027C187.401 40.5027 186.957 40.5912 186.513 40.7669C186.068 40.9426 185.666 41.2205 185.305 41.6006C184.945 41.9808 184.653 42.4757 184.431 43.0867C184.208 43.6977 184.098 44.4384 184.098 45.3089L184.099 45.3078Z" fill="#FFCE1F"></path><path d="M205.667 37.3641C206.425 37.3641 207.152 37.4939 207.846 37.7523C208.541 38.0118 209.155 38.4011 209.692 38.9191C210.228 39.4382 210.653 40.0859 210.968 40.8633C211.282 41.6408 211.44 42.5481 211.44 43.5851V52.8058H207.97V44.1961C207.97 43.5851 207.873 43.0477 207.679 42.5848C207.485 42.122 207.225 41.7339 206.902 41.418C206.578 41.1034 206.203 40.8668 205.778 40.7095C205.352 40.5521 204.908 40.4729 204.446 40.4729C203.946 40.4729 203.45 40.5751 202.96 40.7784C202.469 40.9828 202.04 41.2825 201.669 41.681C201.299 42.0795 200.998 42.5653 200.767 43.1395C200.535 43.7137 200.421 44.3706 200.421 45.1114V52.8047H196.923V37.7787H200.421V40.8898C200.994 39.7792 201.744 38.9133 202.669 38.2932C203.594 37.673 204.594 37.3629 205.667 37.3629V37.3641Z" fill="#FFCE1F"></path><path d="M239.336 52.8058H235.422L234.173 49.7235H231.702C230.814 49.7235 229.962 49.7556 229.149 49.8211C228.334 49.8865 227.589 50.0255 226.914 50.238C226.238 50.4516 225.652 50.7616 225.151 51.1682C224.652 51.5759 224.263 52.1225 223.985 52.807H220.072L227.955 33.3653H231.452L239.336 52.807V52.8058ZM232.813 46.3896L229.704 38.6687L225.957 47.9457C226.789 47.3531 227.677 46.9454 228.622 46.7238C229.565 46.501 230.593 46.3907 231.702 46.3907H232.813V46.3896Z" fill="#FFCE1F"></path><path d="M241.306 52.8058V33.3641H244.942V52.8058H241.306Z" fill="#FFCE1F"></path><path d="M4.25244 13.2287V25.6593L1.15019 27.9642C0.228581 28.6487 -0.191481 29.8201 0.0828207 30.9352L2.93372 42.4884C3.0439 42.9374 3.68088 43.4083 4.02749 43.6356C4.16865 43.7287 4.25129 43.8849 4.25129 44.0537V63.392C4.25129 67.6217 7.67834 71.0509 11.9053 71.0509C12.6066 71.0509 13.2539 70.6777 13.6062 70.0701L22.0132 55.5517C23.1402 53.6051 21.9592 51.1326 19.7373 50.7892C18.212 50.5526 16.9059 49.5673 16.2597 48.1639L13.643 42.4803C13.6326 42.4574 13.6097 42.4436 13.5856 42.4447L7.12055 42.6928C6.448 42.718 5.77659 42.6457 5.12469 42.4769C4.68168 42.362 4.33622 42.0129 4.22604 41.5673L1.56221 30.771C1.40154 30.1187 1.64715 29.4319 2.18657 29.0311L12.0878 21.68C12.563 21.3274 13.216 21.3366 13.6808 21.703L15.7765 23.3567C16.3756 23.8299 17.2112 23.8632 17.8459 23.4383L28.6308 16.2227C30.2273 15.1546 32.183 14.7711 34.0641 15.1581L51.5551 18.7492C52.673 18.9789 53.5751 19.8058 53.901 20.9002L54.8617 24.125C56.0472 28.1032 56.7634 32.2076 56.9964 36.3523C57.0113 36.6176 56.9677 36.8829 56.8701 37.1298L56.0484 39.1993C55.9462 39.4554 55.9152 39.7344 55.9566 40.0078L55.9876 40.2099C56.2033 41.6362 56.6291 43.0224 57.2512 44.3247L58.1992 46.308C58.4597 46.8547 58.3644 47.5047 57.9559 47.9526C57.5771 48.3683 57.1226 48.706 56.6153 48.9494L55.7006 49.3881C55.4975 49.4857 55.4206 49.7338 55.5319 49.929L55.7603 50.3298C55.9129 50.5974 55.9038 50.927 55.7385 51.1854L55.1405 52.1168C54.9822 52.3637 54.9305 52.6646 54.9982 52.9494L55.1727 53.6821C55.2519 54.0151 55.1176 54.362 54.8353 54.5549L54.0491 55.0924C53.7713 55.2818 53.5934 55.5873 53.5647 55.9227L53.4431 57.3582C53.3547 58.3918 52.4136 59.1348 51.3887 58.9809L43.7886 57.8371C42.8486 57.6958 41.9167 58.1403 41.4358 58.9614L35.9406 68.3303C35.2347 69.5338 36.1024 71.0498 37.4969 71.0498H62.0394C66.2664 71.0498 69.6935 67.6206 69.6935 63.3909V13.2276C69.6935 8.99793 66.2664 5.56873 62.0394 5.56873H11.9076C7.68063 5.56873 4.25359 8.99793 4.25359 13.2276L4.25244 13.2287Z" fill="#FFCE1F"></path><path d="M64.4324 0.0011478H46.0128C42.867 0.0011478 40.3042 2.46682 40.1309 5.57102H62.0383C66.2653 5.57102 69.6923 9.00022 69.6923 13.2299V29.7638C72.6924 29.487 75.0429 26.9639 75.0429 23.8884V10.6172C75.0429 4.75334 70.2926 0 64.4324 0V0.0011478Z" fill="#8CA3BE"></path></svg>